<mxfile host="65bd71144e">
    <diagram id="i8nCHE71dqEQOdLemHbe" name="ãƒšãƒ¼ã‚¸1">
        <mxGraphModel dx="751" dy="873" grid="1" gridSize="10" guides="1" tooltips="1" connect="1" arrows="1" fold="1" page="1" pageScale="1" pageWidth="827" pageHeight="1169" math="0" shadow="0">
            <root>
                <mxCell id="0"/>
                <mxCell id="1" parent="0"/>
                <mxCell id="9" value="" style="whiteSpace=wrap;html=1;fillColor=none;" parent="1" vertex="1">
                    <mxGeometry x="40" y="40" width="640" height="360" as="geometry"/>
                </mxCell>
                <mxCell id="10" value="" style="whiteSpace=wrap;html=1;fillColor=none;" parent="1" vertex="1">
                    <mxGeometry x="40" y="40" width="160" height="360" as="geometry"/>
                </mxCell>
                <mxCell id="11" value="" style="whiteSpace=wrap;html=1;fillColor=none;" parent="1" vertex="1">
                    <mxGeometry x="520" y="40" width="160" height="360" as="geometry"/>
                </mxCell>
                <mxCell id="12" value="" style="whiteSpace=wrap;html=1;fillColor=none;" parent="1" vertex="1">
                    <mxGeometry x="200" y="40" width="320" height="40" as="geometry"/>
                </mxCell>
                <mxCell id="13" value="&lt;span style=&quot;&quot;&gt;(Dynamic Tabs)&lt;/span&gt;" style="text;html=1;align=center;verticalAlign=middle;resizable=0;points=[];autosize=1;strokeColor=none;fillColor=none;" parent="1" vertex="1">
                    <mxGeometry x="305" y="205" width="110" height="30" as="geometry"/>
                </mxCell>
                <mxCell id="17" value="{Device}" style="whiteSpace=wrap;html=1;fillColor=none;strokeColor=none;" parent="1" vertex="1">
                    <mxGeometry x="50" y="50" width="60" height="20" as="geometry"/>
                </mxCell>
                <mxCell id="18" value="{Intf}" style="whiteSpace=wrap;html=1;fillColor=none;strokeColor=none;" parent="1" vertex="1">
                    <mxGeometry x="70" y="80" width="60" height="20" as="geometry"/>
                </mxCell>
                <mxCell id="19" value="Properties" style="whiteSpace=wrap;html=1;fillColor=none;strokeColor=none;" parent="1" vertex="1">
                    <mxGeometry x="90" y="110" width="60" height="20" as="geometry"/>
                </mxCell>
                <mxCell id="20" value="" style="endArrow=none;html=1;rounded=0;" parent="1" edge="1">
                    <mxGeometry width="50" height="50" relative="1" as="geometry">
                        <mxPoint x="90" y="120" as="sourcePoint"/>
                        <mxPoint x="80" y="100" as="targetPoint"/>
                        <Array as="points">
                            <mxPoint x="80" y="120"/>
                        </Array>
                    </mxGeometry>
                </mxCell>
                <mxCell id="21" value="UI" style="whiteSpace=wrap;html=1;fillColor=none;strokeColor=none;" parent="1" vertex="1">
                    <mxGeometry x="90" y="140" width="60" height="20" as="geometry"/>
                </mxCell>
                <mxCell id="22" value="" style="endArrow=none;html=1;rounded=0;" parent="1" edge="1">
                    <mxGeometry width="50" height="50" relative="1" as="geometry">
                        <mxPoint x="90" y="150" as="sourcePoint"/>
                        <mxPoint x="80" y="120" as="targetPoint"/>
                        <Array as="points">
                            <mxPoint x="80" y="150"/>
                        </Array>
                    </mxGeometry>
                </mxCell>
                <mxCell id="23" value="{Contxt}" style="whiteSpace=wrap;html=1;fillColor=none;strokeColor=none;" parent="1" vertex="1">
                    <mxGeometry x="70" y="170" width="60" height="20" as="geometry"/>
                </mxCell>
                <mxCell id="25" value="" style="endArrow=none;html=1;rounded=0;" parent="1" edge="1">
                    <mxGeometry width="50" height="50" relative="1" as="geometry">
                        <mxPoint x="70" y="90" as="sourcePoint"/>
                        <mxPoint x="60" y="70" as="targetPoint"/>
                        <Array as="points">
                            <mxPoint x="60" y="90"/>
                        </Array>
                    </mxGeometry>
                </mxCell>
                <mxCell id="26" value="" style="endArrow=none;html=1;rounded=0;" parent="1" edge="1">
                    <mxGeometry width="50" height="50" relative="1" as="geometry">
                        <mxPoint x="70" y="180" as="sourcePoint"/>
                        <mxPoint x="60" y="90" as="targetPoint"/>
                        <Array as="points">
                            <mxPoint x="60" y="180"/>
                        </Array>
                    </mxGeometry>
                </mxCell>
                <mxCell id="27" value="Query" style="whiteSpace=wrap;html=1;fillColor=none;" parent="1" vertex="1">
                    <mxGeometry x="520" y="40" width="160" height="40" as="geometry"/>
                </mxCell>
                <mxCell id="28" value="L" style="whiteSpace=wrap;html=1;fillColor=none;" parent="1" vertex="1">
                    <mxGeometry x="520" y="80" width="20" height="20" as="geometry"/>
                </mxCell>
                <mxCell id="29" value="Dev" style="whiteSpace=wrap;html=1;fillColor=none;" parent="1" vertex="1">
                    <mxGeometry x="540" y="80" width="40" height="20" as="geometry"/>
                </mxCell>
                <mxCell id="30" value="Tag" style="whiteSpace=wrap;html=1;fillColor=none;" parent="1" vertex="1">
                    <mxGeometry x="580" y="80" width="40" height="20" as="geometry"/>
                </mxCell>
                <mxCell id="31" value="Text" style="whiteSpace=wrap;html=1;fillColor=none;" parent="1" vertex="1">
                    <mxGeometry x="620" y="80" width="60" height="20" as="geometry"/>
                </mxCell>
                <mxCell id="32" value="" style="whiteSpace=wrap;html=1;fillColor=none;" parent="1" vertex="1">
                    <mxGeometry x="40" y="480" width="320" height="360" as="geometry"/>
                </mxCell>
                <mxCell id="33" value="" style="whiteSpace=wrap;html=1;fillColor=none;" parent="1" vertex="1">
                    <mxGeometry x="400" y="480" width="320" height="360" as="geometry"/>
                </mxCell>
                <mxCell id="34" value="xxxxx: xxxxx" style="whiteSpace=wrap;html=1;fillColor=none;strokeColor=none;" parent="1" vertex="1">
                    <mxGeometry x="400" y="480" width="80" height="20" as="geometry"/>
                </mxCell>
                <mxCell id="35" value="xxxxx: xxxxx" style="whiteSpace=wrap;html=1;fillColor=none;strokeColor=none;" parent="1" vertex="1">
                    <mxGeometry x="400" y="500" width="80" height="20" as="geometry"/>
                </mxCell>
                <mxCell id="36" value="xxxxx: xxxxx" style="whiteSpace=wrap;html=1;fillColor=none;strokeColor=none;" parent="1" vertex="1">
                    <mxGeometry x="400" y="520" width="80" height="20" as="geometry"/>
                </mxCell>
                <mxCell id="37" value="xxxxx: xxxxx" style="whiteSpace=wrap;html=1;fillColor=none;strokeColor=none;" parent="1" vertex="1">
                    <mxGeometry x="400" y="540" width="80" height="20" as="geometry"/>
                </mxCell>
                <mxCell id="39" value="xxxxx: xxxxx" style="whiteSpace=wrap;html=1;fillColor=none;strokeColor=none;" parent="1" vertex="1">
                    <mxGeometry x="400" y="560" width="80" height="20" as="geometry"/>
                </mxCell>
                <mxCell id="40" value="xxxxx: xxxxx" style="whiteSpace=wrap;html=1;fillColor=none;strokeColor=none;" parent="1" vertex="1">
                    <mxGeometry x="400" y="580" width="80" height="20" as="geometry"/>
                </mxCell>
                <mxCell id="41" value="xxxxx: xxxxx" style="whiteSpace=wrap;html=1;fillColor=none;strokeColor=none;" parent="1" vertex="1">
                    <mxGeometry x="400" y="600" width="80" height="20" as="geometry"/>
                </mxCell>
                <mxCell id="42" value="xxxxx: xxxxx" style="whiteSpace=wrap;html=1;fillColor=none;strokeColor=none;" parent="1" vertex="1">
                    <mxGeometry x="400" y="620" width="80" height="20" as="geometry"/>
                </mxCell>
                <mxCell id="49" value="Key" style="whiteSpace=wrap;html=1;strokeColor=default;fillColor=none;" parent="1" vertex="1">
                    <mxGeometry x="40" y="490" width="80" height="20" as="geometry"/>
                </mxCell>
                <mxCell id="50" value="Value" style="whiteSpace=wrap;html=1;strokeColor=default;fillColor=none;" parent="1" vertex="1">
                    <mxGeometry x="180" y="490" width="140" height="20" as="geometry"/>
                </mxCell>
                <mxCell id="51" value="Type" style="whiteSpace=wrap;html=1;strokeColor=default;fillColor=none;" parent="1" vertex="1">
                    <mxGeometry x="120" y="490" width="60" height="20" as="geometry"/>
                </mxCell>
                <mxCell id="52" value="ðŸ—‘ âœ…" style="whiteSpace=wrap;html=1;strokeColor=default;fillColor=none;" parent="1" vertex="1">
                    <mxGeometry x="320" y="490" width="40" height="20" as="geometry"/>
                </mxCell>
                <mxCell id="53" value="Context" style="text;html=1;align=center;verticalAlign=middle;resizable=0;points=[];autosize=1;strokeColor=none;fillColor=none;" parent="1" vertex="1">
                    <mxGeometry x="350" y="840" width="60" height="30" as="geometry"/>
                </mxCell>
                <mxCell id="55" value="Top" style="text;html=1;align=center;verticalAlign=middle;resizable=0;points=[];autosize=1;strokeColor=none;fillColor=none;" parent="1" vertex="1">
                    <mxGeometry x="340" y="400" width="40" height="30" as="geometry"/>
                </mxCell>
                <mxCell id="59" value="" style="endArrow=none;html=1;rounded=0;" parent="1" edge="1">
                    <mxGeometry width="50" height="50" relative="1" as="geometry">
                        <mxPoint x="210" y="70" as="sourcePoint"/>
                        <mxPoint x="210" y="70" as="targetPoint"/>
                        <Array as="points">
                            <mxPoint x="210" y="50"/>
                            <mxPoint x="260" y="50"/>
                            <mxPoint x="270" y="60"/>
                            <mxPoint x="270" y="70"/>
                        </Array>
                    </mxGeometry>
                </mxCell>
                <mxCell id="60" value="" style="endArrow=none;html=1;rounded=0;" parent="1" edge="1">
                    <mxGeometry width="50" height="50" relative="1" as="geometry">
                        <mxPoint x="280" y="70" as="sourcePoint"/>
                        <mxPoint x="280" y="70" as="targetPoint"/>
                        <Array as="points">
                            <mxPoint x="280" y="50"/>
                            <mxPoint x="330" y="50"/>
                            <mxPoint x="340" y="60"/>
                            <mxPoint x="340" y="70"/>
                        </Array>
                    </mxGeometry>
                </mxCell>
                <mxCell id="61" value="" style="endArrow=none;html=1;rounded=0;" parent="1" edge="1">
                    <mxGeometry width="50" height="50" relative="1" as="geometry">
                        <mxPoint x="350" y="70" as="sourcePoint"/>
                        <mxPoint x="350" y="70" as="targetPoint"/>
                        <Array as="points">
                            <mxPoint x="350" y="50"/>
                            <mxPoint x="400" y="50"/>
                            <mxPoint x="410" y="60"/>
                            <mxPoint x="410" y="70"/>
                        </Array>
                    </mxGeometry>
                </mxCell>
                <mxCell id="62" value="" style="endArrow=none;html=1;rounded=0;" parent="1" edge="1">
                    <mxGeometry width="50" height="50" relative="1" as="geometry">
                        <mxPoint x="220" y="65" as="sourcePoint"/>
                        <mxPoint x="230" y="55" as="targetPoint"/>
                    </mxGeometry>
                </mxCell>
                <mxCell id="63" value="" style="endArrow=none;html=1;rounded=0;" parent="1" edge="1">
                    <mxGeometry width="50" height="50" relative="1" as="geometry">
                        <mxPoint x="230" y="65" as="sourcePoint"/>
                        <mxPoint x="220" y="55" as="targetPoint"/>
                    </mxGeometry>
                </mxCell>
                <mxCell id="64" value="" style="endArrow=none;html=1;rounded=0;" parent="1" edge="1">
                    <mxGeometry width="50" height="50" relative="1" as="geometry">
                        <mxPoint x="290" y="65" as="sourcePoint"/>
                        <mxPoint x="300" y="55" as="targetPoint"/>
                    </mxGeometry>
                </mxCell>
                <mxCell id="65" value="" style="endArrow=none;html=1;rounded=0;" parent="1" edge="1">
                    <mxGeometry width="50" height="50" relative="1" as="geometry">
                        <mxPoint x="300" y="65" as="sourcePoint"/>
                        <mxPoint x="290" y="55" as="targetPoint"/>
                    </mxGeometry>
                </mxCell>
                <mxCell id="66" value="" style="endArrow=none;html=1;rounded=0;" parent="1" edge="1">
                    <mxGeometry width="50" height="50" relative="1" as="geometry">
                        <mxPoint x="355" y="65" as="sourcePoint"/>
                        <mxPoint x="365" y="55" as="targetPoint"/>
                    </mxGeometry>
                </mxCell>
                <mxCell id="67" value="" style="endArrow=none;html=1;rounded=0;" parent="1" edge="1">
                    <mxGeometry width="50" height="50" relative="1" as="geometry">
                        <mxPoint x="365" y="65" as="sourcePoint"/>
                        <mxPoint x="355" y="55" as="targetPoint"/>
                    </mxGeometry>
                </mxCell>
                <mxCell id="68" value="Key" style="whiteSpace=wrap;html=1;strokeColor=default;fillColor=none;" parent="1" vertex="1">
                    <mxGeometry x="40" y="520" width="80" height="20" as="geometry"/>
                </mxCell>
                <mxCell id="69" value="Value" style="whiteSpace=wrap;html=1;strokeColor=default;fillColor=none;" parent="1" vertex="1">
                    <mxGeometry x="180" y="520" width="140" height="20" as="geometry"/>
                </mxCell>
                <mxCell id="70" value="Type" style="whiteSpace=wrap;html=1;strokeColor=default;fillColor=none;" parent="1" vertex="1">
                    <mxGeometry x="120" y="520" width="60" height="20" as="geometry"/>
                </mxCell>
                <mxCell id="71" value="ðŸ—‘ âœ…" style="whiteSpace=wrap;html=1;strokeColor=default;fillColor=none;" parent="1" vertex="1">
                    <mxGeometry x="320" y="520" width="40" height="20" as="geometry"/>
                </mxCell>
                <mxCell id="76" value="Key" style="whiteSpace=wrap;html=1;strokeColor=default;fillColor=none;" parent="1" vertex="1">
                    <mxGeometry x="40" y="550" width="80" height="20" as="geometry"/>
                </mxCell>
                <mxCell id="77" value="Value" style="whiteSpace=wrap;html=1;strokeColor=default;fillColor=none;" parent="1" vertex="1">
                    <mxGeometry x="180" y="550" width="140" height="20" as="geometry"/>
                </mxCell>
                <mxCell id="78" value="Type" style="whiteSpace=wrap;html=1;strokeColor=default;fillColor=none;" parent="1" vertex="1">
                    <mxGeometry x="120" y="550" width="60" height="20" as="geometry"/>
                </mxCell>
                <mxCell id="79" value="ðŸ—‘ âœ…" style="whiteSpace=wrap;html=1;strokeColor=default;fillColor=none;" parent="1" vertex="1">
                    <mxGeometry x="320" y="550" width="40" height="20" as="geometry"/>
                </mxCell>
                <mxCell id="80" value="Key" style="whiteSpace=wrap;html=1;strokeColor=default;fillColor=none;" parent="1" vertex="1">
                    <mxGeometry x="40" y="580" width="80" height="20" as="geometry"/>
                </mxCell>
                <mxCell id="81" value="Value" style="whiteSpace=wrap;html=1;strokeColor=default;fillColor=none;" parent="1" vertex="1">
                    <mxGeometry x="180" y="580" width="140" height="20" as="geometry"/>
                </mxCell>
                <mxCell id="82" value="Type" style="whiteSpace=wrap;html=1;strokeColor=default;fillColor=none;" parent="1" vertex="1">
                    <mxGeometry x="120" y="580" width="60" height="20" as="geometry"/>
                </mxCell>
                <mxCell id="83" value="ðŸ—‘ âœ…" style="whiteSpace=wrap;html=1;strokeColor=default;fillColor=none;" parent="1" vertex="1">
                    <mxGeometry x="320" y="580" width="40" height="20" as="geometry"/>
                </mxCell>
            </root>
        </mxGraphModel>
    </diagram>
</mxfile>